<svg version="1.1" id="Layer_1" xmlns="http://www.w3.org/2000/svg" xmlns:xlink="http://www.w3.org/1999/xlink" x="0px" y="0px"
	 width="100%" viewBox="0 0 6000 3375" enable-background="new 0 0 6000 3375" xml:space="preserve">
<path fill="#000000" opacity="1.000000" stroke="none" 
	d="
M5580.000000,3380.000000 
	C3720.000000,3380.000000 1862.000000,3380.000000 4.000000,3380.000000 
	C4.000000,2254.666748 4.000000,1129.333374 4.000000,4.000001 
	C2004.000000,4.000000 4004.000000,4.000000 6004.000000,4.000000 
	C6004.000000,1129.333374 6004.000000,2254.666748 6004.000000,3380.000000 
	C5863.333496,3380.000000 5722.666504,3380.000000 5580.000000,3380.000000 
M652.947388,1585.053467 
	C622.665955,1554.106445 592.303040,1523.238647 562.127136,1492.188965 
	C534.744751,1464.013916 507.614197,1435.593994 480.282654,1407.369141 
	C456.653931,1382.968140 432.936584,1358.652344 409.145081,1334.410278 
	C406.579529,1331.796143 404.362000,1327.615356 399.509796,1329.535522 
	C398.848602,1330.054688 397.982758,1330.387207 397.891449,1330.866943 
	C397.520111,1332.817993 397.191650,1334.814331 397.192566,1336.793823 
	C397.284332,1538.001831 397.407104,1739.209961 397.549530,1940.417969 
	C397.549988,1941.062866 397.731201,1941.791992 398.070770,1942.328003 
	C398.388855,1942.830200 399.029938,1943.127930 399.528961,1943.515625 
	C422.024780,1945.822388 464.048584,1945.457764 478.677155,1942.828979 
	C478.870209,1942.191284 479.088043,1941.559692 479.249298,1940.914062 
	C479.409210,1940.273926 479.587311,1939.623779 479.624420,1938.970581 
	C479.699951,1937.641113 479.705688,1936.306763 479.705811,1934.974365 
	C479.710968,1883.669922 479.712311,1832.365356 479.713806,1781.060913 
	C479.713898,1778.395752 479.799500,1775.727051 479.691681,1773.066162 
	C479.476166,1767.748047 479.141815,1762.434814 478.884644,1757.118286 
	C478.820312,1755.788452 478.858673,1754.453491 478.856812,1753.120972 
	C478.853058,1750.455811 478.853363,1747.790649 478.853363,1745.125488 
	C478.853790,1676.497437 478.854309,1607.869263 478.855499,1539.241211 
	C478.855530,1537.908569 478.846802,1536.575684 478.873474,1535.243530 
	C478.900146,1533.912842 478.938080,1532.581055 479.026825,1531.253418 
	C479.071075,1530.592163 479.169800,1529.916382 479.373260,1529.289185 
	C479.558868,1528.717041 479.819458,1528.103638 480.229004,1527.687744 
	C480.682343,1527.227783 481.342499,1526.971558 482.916199,1526.019165 
	C487.323425,1530.148560 492.171265,1534.369629 496.656616,1538.945923 
	C524.159607,1567.006958 551.494568,1595.233154 579.047729,1623.244507 
	C627.160706,1672.156860 675.358521,1720.985718 723.583191,1769.787964 
	C759.637878,1806.274048 795.873230,1842.581909 831.872803,1879.122192 
	C858.513489,1906.163086 884.883667,1933.470459 911.455994,1960.579102 
	C913.106323,1962.262817 915.470642,1963.246704 917.123047,1964.311401 
	C918.643860,1963.182983 919.400818,1962.916260 919.553162,1962.451294 
	C919.959290,1961.210938 920.324585,1959.885376 920.324097,1958.593872 
	C920.244812,1756.055176 920.132324,1553.516602 919.994812,1350.977905 
	C919.994385,1350.343628 919.700928,1349.658936 919.380310,1349.090332 
	C919.086182,1348.568726 918.569946,1348.172485 916.782288,1346.243286 
	C904.948669,1346.243286 891.694214,1345.928833 878.461731,1346.332520 
	C865.464783,1346.728882 852.245239,1344.469482 839.615540,1347.953857 
	C839.615540,1361.010132 839.615540,1372.960449 839.615540,1384.910767 
	C839.615601,1461.534424 839.537354,1538.158081 839.643738,1614.781616 
	C839.713074,1664.745850 840.087769,1714.709839 840.168030,1764.674072 
	C840.172424,1767.419434 838.726501,1770.166992 837.369629,1775.001831 
	C775.480225,1711.237915 715.213928,1649.146118 652.947388,1585.053467 
M2922.524658,1568.511963 
	C2910.240479,1581.334106 2897.956299,1594.156250 2883.446533,1609.301514 
	C2883.303955,1594.451050 2884.666504,1582.194824 2884.447998,1569.980469 
	C2884.233398,1557.991333 2884.400879,1545.995361 2884.400879,1534.002319 
	C2884.400879,1521.343018 2884.400879,1508.683716 2884.400879,1496.024414 
	C2884.400879,1484.031372 2884.400879,1472.038452 2884.400879,1460.045410 
	C2884.400879,1447.386108 2884.400879,1434.726807 2884.400879,1422.067505 
	C2884.400879,1410.074463 2884.502441,1398.080444 2884.372803,1386.088745 
	C2884.237549,1373.609619 2884.949463,1361.079102 2883.818115,1347.390991 
	C2869.354004,1347.390991 2856.140869,1347.101318 2842.946289,1347.470947 
	C2829.268555,1347.854126 2815.392822,1345.662476 2801.135010,1349.255981 
	C2801.135010,1356.759521 2801.135010,1363.394653 2801.135010,1370.029785 
	C2801.135010,1440.655273 2801.135010,1511.280762 2801.135010,1581.906250 
	C2801.135010,1695.839844 2801.106445,1809.773560 2801.203369,1923.707153 
	C2801.209473,1930.773926 2799.913086,1938.131226 2802.652832,1944.614502 
	C2823.451904,1947.373413 2868.798340,1946.999390 2883.771729,1943.934326 
	C2883.771729,1864.318970 2883.771729,1784.515015 2883.771729,1704.361938 
	C2898.815674,1689.714355 2913.552002,1675.303589 2928.403320,1661.012573 
	C2929.762207,1659.705078 2931.859619,1659.164917 2934.401123,1657.866333 
	C2970.411621,1705.737793 3006.266602,1753.658447 3042.401123,1801.367554 
	C3078.935791,1849.605713 3114.760742,1898.390869 3151.553955,1946.113037 
	C3184.764648,1946.113037 3216.686279,1946.133545 3248.607422,1945.992920 
	C3249.394287,1945.989502 3250.173340,1944.199829 3251.675293,1942.364258 
	C3234.519287,1919.860718 3217.212891,1897.132080 3199.875732,1874.426880 
	C3182.900146,1852.196045 3165.892578,1829.989990 3148.900635,1807.771606 
	C3131.504150,1785.024048 3114.120605,1762.266479 3096.711182,1739.528687 
	C3079.706055,1717.318848 3062.536865,1695.232910 3045.694092,1672.900757 
	C3028.559570,1650.181641 3010.593262,1628.060669 2993.572021,1603.724487 
	C3075.073242,1518.292847 3157.029297,1434.781006 3238.307129,1349.548950 
	C3222.699463,1346.930176 3162.034424,1346.348633 3134.232666,1348.450562 
	C3064.808594,1420.638916 2994.667236,1493.573242 2922.524658,1568.511963 
M4311.597168,1565.996948 
	C4311.597168,1599.986084 4311.598145,1633.975342 4311.596680,1667.964478 
	C4311.595703,1690.624146 4312.161133,1713.300903 4311.477051,1735.940063 
	C4309.663574,1795.959839 4276.362793,1845.644531 4216.975098,1865.984619 
	C4192.654785,1874.314087 4167.534180,1876.737183 4142.166992,1872.250244 
	C4085.419678,1862.213257 4047.106201,1830.110352 4028.464111,1775.304077 
	C4023.252197,1759.982178 4022.823975,1743.962036 4022.832520,1727.911255 
	C4022.896973,1608.614746 4022.878418,1489.318359 4022.840576,1370.021851 
	C4022.838379,1362.913330 4022.443115,1355.804688 4022.239014,1348.972900 
	C3996.281494,1346.066406 3954.717773,1346.727783 3941.132324,1350.284546 
	C3941.132324,1357.346436 3941.132324,1364.648926 3941.132324,1371.951294 
	C3941.132324,1490.581299 3941.054932,1609.211304 3941.235596,1727.841064 
	C3941.256836,1741.782837 3941.803955,1755.840942 3943.631836,1769.643188 
	C3952.292725,1835.045410 3984.094482,1886.237915 4041.034424,1919.923706 
	C4104.869141,1957.688599 4173.283203,1962.428711 4243.335938,1941.058350 
	C4330.297852,1914.529663 4390.661621,1837.732910 4390.819336,1739.914673 
	C4391.020020,1615.286865 4390.879395,1490.658447 4390.828613,1366.030273 
	C4390.826660,1360.261963 4390.269531,1354.493896 4389.901855,1347.388428 
	C4380.211426,1347.388428 4371.625000,1347.388550 4363.038086,1347.388550 
	C4354.374023,1347.388550 4345.699707,1347.128418 4337.048828,1347.462891 
	C4328.682129,1347.786377 4320.002441,1345.659546 4311.597168,1349.449219 
	C4311.597168,1420.752563 4311.597168,1491.374634 4311.597168,1565.996948 
M1789.427979,1406.864136 
	C1780.179443,1428.958862 1770.944580,1451.059204 1761.680054,1473.147217 
	C1698.131836,1624.653931 1634.577393,1776.157959 1571.022705,1927.661865 
	C1569.992920,1930.116699 1568.564819,1932.474854 1567.983521,1935.028564 
	C1567.344116,1937.837036 1563.542114,1940.385376 1566.760132,1943.673950 
	C1587.542603,1945.594849 1629.659546,1945.297729 1645.179077,1943.006104 
	C1666.060303,1891.827148 1687.126343,1840.195557 1707.946411,1789.166138 
	C1738.943359,1786.892456 1921.809692,1787.683350 1937.761230,1790.215942 
	C1944.423462,1806.921509 1951.302246,1824.157349 1958.170898,1841.397339 
	C1965.062012,1858.693848 1971.799194,1876.053467 1978.868896,1893.276733 
	C1985.872681,1910.339600 1991.079224,1928.197388 2000.087769,1944.410645 
	C2030.255615,1944.410645 2059.512207,1944.434204 2088.768066,1944.294556 
	C2089.627441,1944.290527 2090.478516,1942.569092 2091.415283,1941.560181 
	C2091.087158,1940.511475 2090.792480,1939.205933 2090.282227,1937.990845 
	C2018.192139,1766.266357 1946.083130,1594.550049 1873.984009,1422.829346 
	C1861.109253,1392.165039 1848.354736,1361.449829 1835.313843,1330.856323 
	C1833.692383,1327.052734 1833.263428,1321.233887 1825.194336,1322.097900 
	C1813.902832,1349.062866 1802.368652,1376.607422 1789.427979,1406.864136 
M5163.655273,1798.000000 
	C5163.721680,1845.316406 5163.786621,1892.632935 5163.871582,1939.949341 
	C5163.873047,1940.573120 5164.025879,1941.258057 5164.316895,1941.802979 
	C5164.621582,1942.373535 5165.178711,1942.809082 5166.065430,1943.790405 
	C5167.416992,1944.053711 5169.282227,1944.735352 5171.147949,1944.734985 
	C5295.772949,1944.711548 5420.397461,1944.634521 5545.022461,1944.526123 
	C5545.591797,1944.525635 5546.201660,1944.071777 5546.719238,1943.721680 
	C5547.266602,1943.351562 5547.726074,1942.851440 5549.192383,1941.545654 
	C5549.192383,1920.515503 5549.216309,1898.609985 5549.158691,1876.704834 
	C5549.152344,1874.196533 5548.689941,1871.689575 5548.324219,1868.040039 
	C5541.180664,1867.829102 5534.669434,1867.471924 5528.158203,1867.469238 
	C5440.185547,1867.432129 5352.213379,1867.489502 5264.240723,1867.350220 
	C5257.864258,1867.340088 5250.947266,1869.456787 5245.358887,1864.943970 
	C5245.077148,1863.840820 5244.775391,1863.210449 5244.774414,1862.579712 
	C5244.539062,1691.978394 5244.326172,1521.377197 5244.073730,1350.775879 
	C5244.073242,1350.200562 5243.555664,1349.605591 5243.219238,1349.057129 
	C5242.871582,1348.490601 5242.449707,1347.969727 5242.060547,1347.428711 
	C5217.584473,1345.261841 5179.806152,1345.807373 5163.655273,1348.815918 
	C5163.655273,1497.022949 5163.655273,1645.511475 5163.655273,1798.000000 
z"/>
<path fill="#FAFAFA" opacity="1.000000" stroke="none" 
	d="
M653.947510,1586.053955 
	C715.213928,1649.146118 775.480225,1711.237915 837.369629,1775.001831 
	C838.726501,1770.166992 840.172424,1767.419434 840.168030,1764.674072 
	C840.087769,1714.709839 839.713074,1664.745850 839.643738,1614.781616 
	C839.537354,1538.158081 839.615601,1461.534424 839.615540,1384.910767 
	C839.615540,1372.960449 839.615540,1361.010132 839.615540,1347.953857 
	C852.245239,1344.469482 865.464783,1346.728882 878.461731,1346.332520 
	C891.694214,1345.928833 904.948669,1346.243286 916.782288,1346.243286 
	C918.569946,1348.172485 919.086182,1348.568726 919.380310,1349.090332 
	C919.700928,1349.658936 919.994385,1350.343628 919.994812,1350.977905 
	C920.132324,1553.516602 920.244812,1756.055176 920.324097,1958.593872 
	C920.324585,1959.885376 919.959290,1961.210938 919.553162,1962.451294 
	C919.400818,1962.916260 918.643860,1963.182983 917.123047,1964.311401 
	C915.470642,1963.246704 913.106323,1962.262817 911.455994,1960.579102 
	C884.883667,1933.470459 858.513489,1906.163086 831.872803,1879.122192 
	C795.873230,1842.581909 759.637878,1806.274048 723.583191,1769.787964 
	C675.358521,1720.985718 627.160706,1672.156860 579.047729,1623.244507 
	C551.494568,1595.233154 524.159607,1567.006958 496.656616,1538.945923 
	C492.171265,1534.369629 487.323425,1530.148560 482.916199,1526.019165 
	C481.342499,1526.971558 480.682343,1527.227783 480.229004,1527.687744 
	C479.819458,1528.103638 479.558868,1528.717041 479.373260,1529.289185 
	C479.169800,1529.916382 479.071075,1530.592163 479.026825,1531.253418 
	C478.938080,1532.581055 478.900146,1533.912842 478.873474,1535.243530 
	C478.846802,1536.575684 478.855530,1537.908569 478.855499,1539.241211 
	C478.854309,1607.869263 478.853790,1676.497437 478.853363,1745.125488 
	C478.853363,1747.790649 478.853058,1750.455811 478.856812,1753.120972 
	C478.858673,1754.453491 478.820312,1755.788452 478.884644,1757.118286 
	C479.141815,1762.434814 479.476166,1767.748047 479.691681,1773.066162 
	C479.799500,1775.727051 479.713898,1778.395752 479.713806,1781.060913 
	C479.712311,1832.365356 479.710968,1883.669922 479.705811,1934.974365 
	C479.705688,1936.306763 479.699951,1937.641113 479.624420,1938.970581 
	C479.587311,1939.623779 479.409210,1940.273926 479.249298,1940.914062 
	C479.088043,1941.559692 478.870209,1942.191284 478.677185,1942.828979 
	C464.048584,1945.457764 422.024780,1945.822388 399.528931,1943.515625 
	C399.029938,1943.127930 398.388855,1942.830200 398.070770,1942.328003 
	C397.731201,1941.791992 397.549988,1941.062866 397.549530,1940.417969 
	C397.407104,1739.209961 397.284332,1538.001831 397.192566,1336.793823 
	C397.191650,1334.814331 397.520111,1332.817993 397.891449,1330.866943 
	C397.982758,1330.387207 398.848602,1330.054688 399.509796,1329.535522 
	C404.362000,1327.615356 406.579529,1331.796143 409.145081,1334.410278 
	C432.936584,1358.652344 456.653931,1382.968140 480.282654,1407.369141 
	C507.614197,1435.593994 534.744751,1464.013916 562.127136,1492.188965 
	C592.303040,1523.238647 622.665955,1554.106445 653.947510,1586.053955 
z"/>
<path fill="#F9F9F9" opacity="1.000000" stroke="none" 
	d="
M2923.525391,1567.509766 
	C2994.667236,1493.573242 3064.808594,1420.638916 3134.232666,1348.450562 
	C3162.034424,1346.348633 3222.699463,1346.930176 3238.307129,1349.548950 
	C3157.029297,1434.781006 3075.073242,1518.292847 2993.572021,1603.724487 
	C3010.593262,1628.060669 3028.559570,1650.181641 3045.694092,1672.900757 
	C3062.536865,1695.232910 3079.706055,1717.318848 3096.711182,1739.528687 
	C3114.120605,1762.266479 3131.504150,1785.024048 3148.900635,1807.771606 
	C3165.892578,1829.989990 3182.900146,1852.196045 3199.875732,1874.426880 
	C3217.212891,1897.132080 3234.519287,1919.860718 3251.675293,1942.364258 
	C3250.173340,1944.199829 3249.394287,1945.989502 3248.607422,1945.992920 
	C3216.686279,1946.133545 3184.764648,1946.113037 3151.553955,1946.113037 
	C3114.760742,1898.390869 3078.935791,1849.605713 3042.401123,1801.367554 
	C3006.266602,1753.658447 2970.411621,1705.737793 2934.401123,1657.866333 
	C2931.859619,1659.164917 2929.762207,1659.705078 2928.403320,1661.012573 
	C2913.552002,1675.303589 2898.815674,1689.714355 2883.771729,1704.361938 
	C2883.771729,1784.515015 2883.771729,1864.318970 2883.771729,1943.934326 
	C2868.798340,1946.999390 2823.451904,1947.373413 2802.652832,1944.614502 
	C2799.913086,1938.131226 2801.209473,1930.773926 2801.203369,1923.707153 
	C2801.106445,1809.773560 2801.135010,1695.839844 2801.135010,1581.906250 
	C2801.135010,1511.280762 2801.135010,1440.655273 2801.135010,1370.029785 
	C2801.135010,1363.394653 2801.135010,1356.759521 2801.135010,1349.255981 
	C2815.392822,1345.662476 2829.268555,1347.854126 2842.946289,1347.470947 
	C2856.140869,1347.101318 2869.354004,1347.390991 2883.818115,1347.390991 
	C2884.949463,1361.079102 2884.237549,1373.609619 2884.372803,1386.088745 
	C2884.502441,1398.080444 2884.400879,1410.074463 2884.400879,1422.067505 
	C2884.400879,1434.726807 2884.400879,1447.386108 2884.400879,1460.045410 
	C2884.400879,1472.038452 2884.400879,1484.031372 2884.400879,1496.024414 
	C2884.400879,1508.683716 2884.400879,1521.343018 2884.400879,1534.002319 
	C2884.400879,1545.995361 2884.233398,1557.991333 2884.447998,1569.980469 
	C2884.666504,1582.194824 2883.303955,1594.451050 2883.446533,1609.301514 
	C2897.956299,1594.156250 2910.240479,1581.334106 2923.525391,1567.509766 
z"/>
<path fill="#F9F9F9" opacity="1.000000" stroke="none" 
	d="
M4311.597168,1563.996826 
	C4311.597168,1491.374634 4311.597168,1420.752563 4311.597168,1349.449219 
	C4320.002441,1345.659546 4328.682129,1347.786377 4337.048828,1347.462891 
	C4345.699707,1347.128418 4354.374023,1347.388550 4363.038086,1347.388550 
	C4371.625000,1347.388550 4380.211426,1347.388428 4389.901855,1347.388428 
	C4390.269531,1354.493896 4390.826660,1360.261963 4390.828613,1366.030273 
	C4390.879395,1490.658447 4391.020020,1615.286865 4390.819336,1739.914673 
	C4390.661621,1837.732910 4330.297852,1914.529663 4243.335938,1941.058350 
	C4173.283203,1962.428711 4104.869141,1957.688599 4041.034424,1919.923706 
	C3984.094482,1886.237915 3952.292725,1835.045410 3943.631836,1769.643188 
	C3941.803955,1755.840942 3941.256836,1741.782837 3941.235596,1727.841064 
	C3941.054932,1609.211304 3941.132324,1490.581299 3941.132324,1371.951294 
	C3941.132324,1364.648926 3941.132324,1357.346436 3941.132324,1350.284546 
	C3954.717773,1346.727783 3996.281494,1346.066406 4022.239014,1348.972900 
	C4022.443115,1355.804688 4022.838379,1362.913330 4022.840576,1370.021851 
	C4022.878418,1489.318359 4022.896973,1608.614746 4022.832520,1727.911255 
	C4022.823975,1743.962036 4023.252197,1759.982178 4028.464111,1775.304077 
	C4047.106201,1830.110352 4085.419678,1862.213257 4142.166992,1872.250244 
	C4167.534180,1876.737183 4192.654785,1874.314087 4216.975098,1865.984619 
	C4276.362793,1845.644531 4309.663574,1795.959839 4311.477051,1735.940063 
	C4312.161133,1713.300903 4311.595703,1690.624146 4311.596680,1667.964478 
	C4311.598145,1633.975342 4311.597168,1599.986084 4311.597168,1563.996826 
z"/>
<path fill="#FBFBFB" opacity="1.000000" stroke="none" 
	d="
M1790.131226,1405.508057 
	C1802.368652,1376.607422 1813.902832,1349.062866 1825.194336,1322.097900 
	C1833.263428,1321.233887 1833.692383,1327.052734 1835.313843,1330.856323 
	C1848.354736,1361.449829 1861.109253,1392.165039 1873.984009,1422.829346 
	C1946.083130,1594.550049 2018.192139,1766.266357 2090.282227,1937.990845 
	C2090.792480,1939.205933 2091.087158,1940.511475 2091.415283,1941.560181 
	C2090.478516,1942.569092 2089.627441,1944.290527 2088.768066,1944.294556 
	C2059.512207,1944.434204 2030.255615,1944.410645 2000.087769,1944.410645 
	C1991.079224,1928.197388 1985.872681,1910.339600 1978.868896,1893.276733 
	C1971.799194,1876.053467 1965.062012,1858.693848 1958.170898,1841.397339 
	C1951.302246,1824.157349 1944.423462,1806.921509 1937.761230,1790.215942 
	C1921.809692,1787.683350 1738.943359,1786.892456 1707.946411,1789.166138 
	C1687.126343,1840.195557 1666.060303,1891.827148 1645.179077,1943.006104 
	C1629.659546,1945.297729 1587.542603,1945.594849 1566.760132,1943.673950 
	C1563.542114,1940.385376 1567.344116,1937.837036 1567.983521,1935.028564 
	C1568.564819,1932.474854 1569.992920,1930.116699 1571.022705,1927.661865 
	C1634.577393,1776.157959 1698.131836,1624.653931 1761.680054,1473.147217 
	C1770.944580,1451.059204 1780.179443,1428.958862 1790.131226,1405.508057 
M1781.773438,1607.716553 
	C1768.329346,1640.957642 1754.847656,1674.183594 1741.508667,1707.466797 
	C1740.381592,1710.279175 1740.209595,1713.474365 1739.647461,1716.229004 
	C1742.089478,1717.250000 1743.252441,1718.161377 1744.415527,1718.161743 
	C1797.626831,1718.173340 1850.838257,1718.106689 1904.049561,1718.030518 
	C1904.702148,1718.029663 1905.475098,1717.958496 1905.972778,1717.608398 
	C1906.458252,1717.267090 1906.662231,1716.525513 1906.989624,1715.959595 
	C1902.646240,1697.892090 1833.479370,1520.924927 1824.164917,1504.788574 
	C1809.251465,1538.432007 1796.645020,1571.884277 1781.773438,1607.716553 
z"/>
<path fill="#FEFEFE" opacity="1.000000" stroke="none" 
	d="
M5163.655273,1796.000000 
	C5163.655273,1645.511475 5163.655273,1497.022949 5163.655273,1348.815918 
	C5179.806152,1345.807373 5217.584473,1345.261841 5242.060547,1347.428833 
	C5242.449707,1347.969727 5242.871582,1348.490601 5243.219238,1349.057129 
	C5243.555664,1349.605591 5244.073242,1350.200562 5244.073730,1350.775879 
	C5244.326172,1521.377197 5244.539062,1691.978394 5244.774414,1862.579712 
	C5244.775391,1863.210449 5245.077148,1863.840820 5245.358887,1864.943970 
	C5250.947266,1869.456787 5257.864258,1867.340088 5264.240723,1867.350220 
	C5352.213379,1867.489502 5440.185547,1867.432129 5528.158203,1867.469238 
	C5534.669434,1867.471924 5541.180664,1867.829102 5548.324219,1868.040039 
	C5548.689941,1871.689575 5549.152344,1874.196533 5549.158691,1876.704834 
	C5549.216309,1898.609985 5549.192383,1920.515503 5549.192383,1941.545654 
	C5547.726074,1942.851440 5547.266602,1943.351562 5546.719238,1943.721680 
	C5546.201660,1944.071777 5545.591797,1944.525635 5545.022461,1944.526123 
	C5420.397461,1944.634521 5295.772949,1944.711548 5171.147949,1944.734985 
	C5169.282227,1944.735352 5167.416992,1944.053711 5166.065430,1943.790405 
	C5165.178711,1942.809082 5164.621582,1942.373535 5164.316895,1941.802979 
	C5164.025879,1941.258057 5163.873047,1940.573120 5163.871582,1939.949341 
	C5163.786621,1892.632935 5163.721680,1845.316406 5163.655273,1796.000000 
z"/>
<path fill="#080808" opacity="1.000000" stroke="none" 
	d="
M1782.458618,1606.336426 
	C1796.645020,1571.884277 1809.251465,1538.432007 1824.164917,1504.788574 
	C1833.479370,1520.924927 1902.646240,1697.892090 1906.989746,1715.959595 
	C1906.662231,1716.525513 1906.458252,1717.267090 1905.972778,1717.608398 
	C1905.475098,1717.958496 1904.702148,1718.029663 1904.049561,1718.030518 
	C1850.838257,1718.106689 1797.626831,1718.173340 1744.415527,1718.161743 
	C1743.252441,1718.161377 1742.089478,1717.250000 1739.647461,1716.229004 
	C1740.209595,1713.474365 1740.381592,1710.279175 1741.508667,1707.466797 
	C1754.847656,1674.183594 1768.329346,1640.957642 1782.458618,1606.336426 
z"/>
</svg>